<?xml version="1.0" encoding="UTF-8"?>
<!DOCTYPE svg PUBLIC "-//W3C//DTD SVG 1.1//EN" "http://www.w3.org/Graphics/SVG/1.1/DTD/svg11.dtd">
<svg xmlns="http://www.w3.org/2000/svg" version="1.1" width="1024px" height="1024px" style="shape-rendering:geometricPrecision; text-rendering:geometricPrecision; image-rendering:optimizeQuality; fill-rule:evenodd; clip-rule:evenodd" xmlns:xlink="http://www.w3.org/1999/xlink">
<g><path style="opacity:1" fill="#2d0d0c" d="M -0.5,-0.5 C 340.833,-0.5 682.167,-0.5 1023.5,-0.5C 1023.5,340.833 1023.5,682.167 1023.5,1023.5C 682.167,1023.5 340.833,1023.5 -0.5,1023.5C -0.5,682.167 -0.5,340.833 -0.5,-0.5 Z"/></g>
<g><path style="opacity:1" fill="#cbbaa6" d="M 598.5,222.5 C 599.29,223.609 599.79,224.942 600,226.5C 601.384,240.83 602.718,255.163 604,269.5C 604.903,270.701 606.069,271.535 607.5,272C 602.627,272.158 597.961,271.158 593.5,269C 595.402,268.801 596.902,267.967 598,266.5C 598.828,262.129 598.661,257.795 597.5,253.5C 592.308,251.936 587.141,250.269 582,248.5C 577.482,251.901 574.815,256.234 574,261.5C 574.5,262 575,262.5 575.5,263C 571.817,262.445 568.15,261.445 564.5,260C 569.229,257.279 573.396,253.779 577,249.5C 584,240.337 591.167,231.337 598.5,222.5 Z"/></g>
<g><path style="opacity:1" fill="#2d1211" d="M 594.5,230.5 C 596.22,232.658 597.053,235.325 597,238.5C 597.667,242.833 597.667,247.167 597,251.5C 593.527,250.342 590.027,249.176 586.5,248C 585.09,247.632 584.09,246.799 583.5,245.5C 587.602,240.744 591.269,235.744 594.5,230.5 Z"/></g>
<g><path style="opacity:1" fill="#c9b8a5" d="M 502.5,209.5 C 505.027,211.51 506.861,214.177 508,217.5C 512.072,227.218 516.238,236.884 520.5,246.5C 526.986,234.865 533.486,223.199 540,211.5C 541.972,225.752 543.472,240.086 544.5,254.5C 546.103,254.312 547.437,254.812 548.5,256C 543.843,256.04 539.176,255.706 534.5,255C 535.766,254.691 536.933,254.191 538,253.5C 538.846,243.097 538.346,232.763 536.5,222.5C 530.667,233.5 524.833,244.5 519,255.5C 514.275,243.717 509.275,232.051 504,220.5C 502.459,229.286 501.292,238.119 500.5,247C 500.581,249.625 501.248,251.959 502.5,254C 498.833,254.667 495.167,254.667 491.5,254C 494.057,253.315 495.891,251.815 497,249.5C 499.162,236.199 500.995,222.866 502.5,209.5 Z"/></g>
<g><path style="opacity:1" fill="#cab9a5" d="M 408.5,225.5 C 410.371,225.859 411.871,226.859 413,228.5C 421.421,239.592 430.588,250.092 440.5,260C 441.833,260.333 443.167,260.667 444.5,261C 440.26,262.971 435.927,264.305 431.5,265C 434.082,262.108 433.916,259.275 431,256.5C 429.167,254.667 427.333,252.833 425.5,251C 420.314,251.559 415.314,253.059 410.5,255.5C 409.338,260.467 409.171,265.467 410,270.5C 411.067,271.191 412.234,271.691 413.5,272C 409.85,273.445 406.183,274.445 402.5,275C 404.774,272.656 405.941,269.822 406,266.5C 407,252.839 407.833,239.172 408.5,225.5 Z"/></g>
<g><path style="opacity:1" fill="#2a1210" d="M 410.5,232.5 C 415.172,237.318 419.505,242.485 423.5,248C 419.01,249.549 414.677,251.383 410.5,253.5C 410.158,246.558 410.158,239.558 410.5,232.5 Z"/></g>
<g><path style="opacity:1" fill="#cbbba6" d="M 350.5,253.5 C 360.051,251.562 365.051,255.395 365.5,265C 365.635,268.042 364.969,270.875 363.5,273.5C 369.302,276.608 375.302,279.442 381.5,282C 384.236,282.422 386.902,282.422 389.5,282C 385.142,284.372 380.476,285.038 375.5,284C 369.219,280.524 362.552,278.191 355.5,277C 364.833,270.333 364.833,263.667 355.5,257C 351.548,256.088 347.881,256.755 344.5,259C 342.789,260.133 342.289,261.633 343,263.5C 349.958,273.915 356.791,284.415 363.5,295C 364.5,295.333 365.5,295.667 366.5,296C 363.475,297.688 360.475,299.021 357.5,300C 358.554,298.612 358.72,297.112 358,295.5C 351.876,284.749 345.376,274.249 338.5,264C 336.833,263.667 335.167,263.333 333.5,263C 339.229,259.806 344.896,256.639 350.5,253.5 Z"/></g>
<g><path style="opacity:1" fill="#cabaa6" d="M 647.5,243.5 C 647.56,242.957 647.893,242.624 648.5,242.5C 653.5,245.667 658.5,248.833 663.5,252C 669.189,259.171 668.523,265.838 661.5,272C 658.123,272.452 654.789,273.118 651.5,274C 652.87,280.048 653.703,286.214 654,292.5C 654.516,295.034 655.683,297.2 657.5,299C 654.802,299.065 652.636,297.898 651,295.5C 649.733,287.175 648.4,278.842 647,270.5C 646.167,269.667 645.333,268.833 644.5,268C 647.287,268.623 650.12,269.456 653,270.5C 660.229,268.606 663.562,263.939 663,256.5C 660.779,251.707 657.279,249.373 652.5,249.5C 646.229,260.377 640.229,271.377 634.5,282.5C 635.043,283.864 635.21,285.197 635,286.5C 632.006,284.627 628.839,283.127 625.5,282C 626.833,281.667 628.167,281.333 629.5,281C 636.299,270.573 642.466,259.74 648,248.5C 648.78,246.613 648.613,244.946 647.5,243.5 Z"/></g>
<g><path style="opacity:1" fill="#c7b7a3" d="M 306.5,283.5 C 311.994,291.507 318.494,298.841 326,305.5C 334.908,318.773 332.074,328.606 317.5,335C 312.889,336.007 308.555,335.34 304.5,333C 296.611,324.932 288.278,317.599 279.5,311C 281.667,308.833 283.833,306.667 286,304.5C 286.333,306.167 286.667,307.833 287,309.5C 294.197,317.031 301.697,324.198 309.5,331C 326.954,331.953 331.787,324.453 324,308.5C 317.833,302.333 311.667,296.167 305.5,290C 304.062,289.781 302.729,289.281 301.5,288.5C 303.521,287.145 305.188,285.479 306.5,283.5 Z"/></g>
<g><path style="opacity:1" fill="#cbbaa6" d="M 696.5,274.5 C 704.821,279.633 712.488,285.8 719.5,293C 721.705,294.706 724.038,296.206 726.5,297.5C 724.065,302.262 722.565,302.262 722,297.5C 719.407,295.451 716.907,293.285 714.5,291C 713.833,290.333 713.167,290.333 712.5,291C 704,300.5 695.5,310 687,319.5C 686.289,321.367 686.789,322.867 688.5,324C 685.352,322.744 682.352,320.91 679.5,318.5C 678.479,317.998 678.312,317.332 679,316.5C 680.868,317.672 682.702,317.505 684.5,316C 692.719,306.62 700.719,297.12 708.5,287.5C 708.333,286.833 708.167,286.167 708,285.5C 705.205,283.707 702.705,281.54 700.5,279C 698.231,278.242 696.064,278.409 694,279.5C 694.058,277.565 694.891,275.898 696.5,274.5 Z"/></g>
<g><path style="opacity:1" fill="#c7b7a3" d="M 745.5,319.5 C 747.951,321.123 749.951,323.289 751.5,326C 748.823,326.249 746.49,327.249 744.5,329C 735.369,336.462 726.536,344.295 718,352.5C 717.316,353.784 717.483,354.951 718.5,356C 715.555,355.253 713.222,353.42 711.5,350.5C 723.383,342.456 734.55,333.456 745,323.5C 745.49,322.207 745.657,320.873 745.5,319.5 Z"/></g>
<g><path style="opacity:1" fill="#c8b8a3" d="M 257.5,344.5 C 274.69,343.235 285.023,350.902 288.5,367.5C 284.848,386.329 273.848,392.829 255.5,387C 242.55,379.151 239.05,368.318 245,354.5C 248.512,350.134 252.679,346.801 257.5,344.5 Z"/></g>
<g><path style="opacity:1" fill="#2c0f0d" d="M 257.5,348.5 C 268.527,347.93 277.027,352.263 283,361.5C 285.939,369.909 284.106,377.076 277.5,383C 264.735,387.034 254.568,383.534 247,372.5C 243.179,361.152 246.679,353.152 257.5,348.5 Z"/></g>
<g><path style="opacity:1" fill="#ccbba6" d="M 772.5,354.5 C 773.043,354.56 773.376,354.893 773.5,355.5C 768.513,371.129 764.013,386.796 760,402.5C 768.581,397.793 777.081,392.96 785.5,388C 787.004,386.509 787.837,384.676 788,382.5C 789.753,385.005 791.253,387.671 792.5,390.5C 790.761,390.594 788.761,390.761 786.5,391C 775.5,397.167 764.5,403.333 753.5,409.5C 753.167,409 752.833,408.5 752.5,408C 757.64,392.924 762.14,377.758 766,362.5C 757.744,367.713 749.244,372.546 740.5,377C 738.513,378.319 737.346,380.152 737,382.5C 734.66,380.209 733.327,377.542 733,374.5C 733.689,375.357 734.522,376.023 735.5,376.5C 748.392,369.896 760.726,362.563 772.5,354.5 Z"/></g>
<g><path style="opacity:1" fill="#936c41" d="M 402.5,412.5 C 401.571,413.936 400.405,415.269 399,416.5C 398.667,415.167 398.333,413.833 398,412.5C 397.802,414.382 397.302,416.048 396.5,417.5C 396.662,415.473 396.495,413.473 396,411.5C 392.297,408.757 390.797,405.09 391.5,400.5C 393.628,386.731 396.295,373.064 399.5,359.5C 402.5,373.5 405.5,387.5 408.5,401.5C 408.301,406.236 406.301,409.903 402.5,412.5 Z"/></g>
<g><path style="opacity:1" fill="#c9b9a3" d="M 217.5,411.5 C 230.925,414.034 244.425,416.367 258,418.5C 259.711,418.561 261.044,417.894 262,416.5C 262.114,419.869 261.614,423.203 260.5,426.5C 259.636,424.803 258.303,423.637 256.5,423C 246.937,420.975 237.604,419.475 228.5,418.5C 237.648,426.571 246.982,434.405 256.5,442C 244.601,444.54 232.601,446.874 220.5,449C 229.149,454.335 238.482,457.335 248.5,458C 249,457.5 249.5,457 250,456.5C 249.445,460.183 248.445,463.85 247,467.5C 246.727,465.671 245.893,464.171 244.5,463C 232.05,457.942 219.717,452.609 207.5,447C 220.987,444.754 234.32,442.088 247.5,439C 237.543,429.567 227.543,420.4 217.5,411.5 Z"/></g>
<g><path style="opacity:1" fill="#4f2c1c" d="M 432.5,416.5 C 425.313,416.175 418.313,416.509 411.5,417.5C 410.957,417.44 410.624,417.107 410.5,416.5C 417.99,415.181 425.323,415.181 432.5,416.5 Z"/></g>
<g><path style="opacity:1" fill="#9d7950" d="M 432.5,416.5 C 450.184,415.452 466.518,419.618 481.5,429C 485.334,431.668 488.667,434.835 491.5,438.5C 491.511,440.017 492.177,441.184 493.5,442C 492.128,442.402 490.795,442.902 489.5,443.5C 488.614,442.675 488.281,441.675 488.5,440.5C 486.309,439.709 484.309,439.709 482.5,440.5C 474.482,433.323 465.149,428.49 454.5,426C 440.871,424.663 427.204,424.163 413.5,424.5C 413.233,422.035 412.566,419.701 411.5,417.5C 418.313,416.509 425.313,416.175 432.5,416.5 Z"/></g>
<g><path style="opacity:1" fill="#9f7b54" d="M 614.5,447.5 C 612.883,449.121 611.716,451.121 611,453.5C 609.129,452.003 608.129,450.003 608,447.5C 607.817,450.365 607.317,453.031 606.5,455.5C 606.5,445.167 606.5,434.833 606.5,424.5C 590.497,424.333 574.497,424.5 558.5,425C 542.033,428.725 528.7,437.225 518.5,450.5C 516.428,447.589 513.762,446.922 510.5,448.5C 522.092,430.191 538.758,419.691 560.5,417C 582.5,416.333 604.5,416.333 626.5,417C 622.455,418.773 618.622,420.94 615,423.5C 614.5,431.493 614.334,439.493 614.5,447.5 Z"/></g>
<g><path style="opacity:1" fill="#a58156" d="M 402.5,412.5 C 402.169,416.505 403.503,419.838 406.5,422.5C 405.807,423.518 405.141,424.518 404.5,425.5C 404.167,425.5 403.833,425.5 403.5,425.5C 402.655,434.421 402.155,444.088 402,454.5C 401.667,453.833 401.333,453.167 401,452.5C 400.333,453.833 399.667,453.833 399,452.5C 398.667,453.833 398.333,455.167 398,456.5C 397.827,450.984 397.327,445.651 396.5,440.5C 396.666,435.489 396.499,430.489 396,425.5C 394.978,424.646 394.145,423.646 393.5,422.5C 394.952,421.06 395.952,419.394 396.5,417.5C 397.302,416.048 397.802,414.382 398,412.5C 398.333,413.833 398.667,415.167 399,416.5C 400.405,415.269 401.571,413.936 402.5,412.5 Z"/></g>
<g><path style="opacity:1" fill="#2c0d0c" d="M 606.5,455.5 C 607.097,460.294 606.43,464.627 604.5,468.5C 578.274,468.4 560.941,480.733 552.5,505.5C 550.468,510.943 548.801,516.61 547.5,522.5C 544.894,523.652 542.227,523.818 539.5,523C 529.415,521.145 519.415,518.978 509.5,516.5C 509.5,503.833 509.5,491.167 509.5,478.5C 509.858,472.711 510.858,467.045 512.5,461.5C 514.738,458.028 516.738,454.362 518.5,450.5C 528.7,437.225 542.033,428.725 558.5,425C 574.497,424.5 590.497,424.333 606.5,424.5C 606.5,434.833 606.5,445.167 606.5,455.5 Z"/></g>
<g><path style="opacity:1" fill="#80685f" d="M 767.5,431.5 C 769.364,430.207 771.364,430.207 773.5,431.5C 773.043,432.298 772.376,432.631 771.5,432.5C 770.432,431.566 769.099,431.232 767.5,431.5 Z"/></g>
<g><path style="opacity:1" fill="#cdbca7" d="M 767.5,431.5 C 769.099,431.232 770.432,431.566 771.5,432.5C 766.807,435.095 765.307,439.095 767,444.5C 769.541,449.069 773.375,450.569 778.5,449C 783.215,443.077 787.049,436.577 790,429.5C 794.567,424.319 800.067,423.153 806.5,426C 810.538,430.695 811.538,436.028 809.5,442C 807.5,442.667 805.5,442.667 803.5,442C 809.653,437.748 809.986,433.081 804.5,428C 802.5,427.333 800.5,427.333 798.5,428C 793.026,433.108 789.193,439.275 787,446.5C 780.563,454.859 773.563,455.525 766,448.5C 763.78,444.405 763.113,440.072 764,435.5C 764.66,433.676 765.827,432.343 767.5,431.5 Z"/></g>
<g><path style="opacity:1" fill="#bea073" d="M 403.5,425.5 C 403.5,435.833 403.5,446.167 403.5,456.5C 402.515,460.634 402.182,464.968 402.5,469.5C 400.833,469.5 399.167,469.5 397.5,469.5C 397.817,465.298 397.483,461.298 396.5,457.5C 396.5,451.833 396.5,446.167 396.5,440.5C 397.327,445.651 397.827,450.984 398,456.5C 398.333,455.167 398.667,453.833 399,452.5C 399.667,453.833 400.333,453.833 401,452.5C 401.333,453.167 401.667,453.833 402,454.5C 402.155,444.088 402.655,434.421 403.5,425.5 Z"/></g>
<g><path style="opacity:1" fill="#b99a6f" d="M 491.5,438.5 C 495.861,442.205 499.527,446.539 502.5,451.5C 506.18,453.23 508.846,452.23 510.5,448.5C 513.762,446.922 516.428,447.589 518.5,450.5C 516.738,454.362 514.738,458.028 512.5,461.5C 510.565,460.518 508.231,460.518 505.5,461.5C 501.766,461.212 498.933,459.545 497,456.5C 496.601,456.728 496.435,457.062 496.5,457.5C 492.589,451.251 487.922,445.585 482.5,440.5C 484.309,439.709 486.309,439.709 488.5,440.5C 488.281,441.675 488.614,442.675 489.5,443.5C 490.795,442.902 492.128,442.402 493.5,442C 492.177,441.184 491.511,440.017 491.5,438.5 Z"/></g>
<g><path style="opacity:1" fill="#755643" d="M 403.5,425.5 C 403.833,425.5 404.167,425.5 404.5,425.5C 403.85,440.206 404.517,454.539 406.5,468.5C 405.791,469.404 404.791,469.737 403.5,469.5C 403.5,465.167 403.5,460.833 403.5,456.5C 403.5,446.167 403.5,435.833 403.5,425.5 Z"/></g>
<g><path style="opacity:1" fill="#c3a67d" d="M 614.5,447.5 C 614.5,454.833 614.5,462.167 614.5,469.5C 610.958,469.813 607.625,469.479 604.5,468.5C 606.43,464.627 607.097,460.294 606.5,455.5C 607.317,453.031 607.817,450.365 608,447.5C 608.129,450.003 609.129,452.003 611,453.5C 611.716,451.121 612.883,449.121 614.5,447.5 Z"/></g>
<g><path style="opacity:1" fill="#d9bc8f" d="M 512.5,461.5 C 510.858,467.045 509.858,472.711 509.5,478.5C 508.67,488.659 508.17,498.992 508,509.5C 507.667,507.167 507.333,504.833 507,502.5C 505.615,503.551 504.615,504.884 504,506.5C 503.667,505.5 503.333,504.5 503,503.5C 502.823,507.356 502.323,511.023 501.5,514.5C 501.667,500.829 501.5,487.163 501,473.5C 500.203,467.947 498.703,462.613 496.5,457.5C 496.435,457.062 496.601,456.728 497,456.5C 498.933,459.545 501.766,461.212 505.5,461.5C 508.231,460.518 510.565,460.518 512.5,461.5 Z"/></g>
<g><path style="opacity:1" fill="#dfc299" d="M 403.5,456.5 C 403.5,460.833 403.5,465.167 403.5,469.5C 404.791,469.737 405.791,469.404 406.5,468.5C 424.678,467.165 439.845,473.165 452,486.5C 455.288,490.744 457.788,495.41 459.5,500.5C 458.03,499.775 456.864,498.109 456,495.5C 455.751,496.624 455.251,497.624 454.5,498.5C 453.304,498.154 453.304,497.654 454.5,497C 453.5,496.333 452.5,496.333 451.5,497C 453.291,498.79 453.625,500.623 452.5,502.5C 447.172,488.648 437.172,480.148 422.5,477C 416.364,475.568 410.364,475.401 404.5,476.5C 403.672,482.653 403.172,488.987 403,495.5C 402.667,490.167 402.333,484.833 402,479.5C 401.667,483.833 401.333,488.167 401,492.5C 400.667,490.833 400.333,489.167 400,487.5C 399.667,488.167 399.333,488.833 399,489.5C 398.667,488.167 398.333,486.833 398,485.5C 397.821,489.025 397.321,492.359 396.5,495.5C 396.829,489.794 396.495,484.128 395.5,478.5C 392.029,479.653 388.696,480.986 385.5,482.5C 383.412,481.061 381.079,480.394 378.5,480.5C 383.438,475.776 389.272,472.442 396,470.5C 396.499,466.179 396.666,461.846 396.5,457.5C 397.483,461.298 397.817,465.298 397.5,469.5C 399.167,469.5 400.833,469.5 402.5,469.5C 402.182,464.968 402.515,460.634 403.5,456.5 Z"/></g>
<g><path style="opacity:1" fill="#2b0f0d" d="M 452.5,502.5 C 452.083,503.124 451.416,503.457 450.5,503.5C 435.351,499.864 420.018,497.531 404.5,496.5C 404.5,489.833 404.5,483.167 404.5,476.5C 410.364,475.401 416.364,475.568 422.5,477C 437.172,480.148 447.172,488.648 452.5,502.5 Z"/></g>
<g><path style="opacity:1" fill="#2c0e0c" d="M 631.5,486.5 C 638.658,492.826 641.991,500.826 641.5,510.5C 640.346,515.464 637.68,519.464 633.5,522.5C 627.69,526.103 621.357,528.103 614.5,528.5C 614.5,522.833 614.5,517.167 614.5,511.5C 614.5,502.167 614.5,492.833 614.5,483.5C 611.833,483.5 609.167,483.5 606.5,483.5C 606.5,491.5 606.5,499.5 606.5,507.5C 606.5,514.833 606.5,522.167 606.5,529.5C 591.757,529.441 577.09,528.441 562.5,526.5C 560.194,526.007 557.861,525.674 555.5,525.5C 555.944,519.275 557.278,513.275 559.5,507.5C 572.132,478.025 593.466,469.191 623.5,481C 626.369,482.596 629.036,484.43 631.5,486.5 Z"/></g>
<g><path style="opacity:1" fill="#2c0f0e" d="M 396.5,495.5 C 387.535,495.06 379.035,496.726 371,500.5C 371.732,497.701 373.066,495.034 375,492.5C 378.396,488.935 381.896,485.602 385.5,482.5C 388.696,480.986 392.029,479.653 395.5,478.5C 396.495,484.128 396.829,489.794 396.5,495.5 Z"/></g>
<g><path style="opacity:1" fill="#ccae7d" d="M 634.5,480.5 C 645.302,487.853 649.969,498.187 648.5,511.5C 647.698,510.048 647.198,508.382 647,506.5C 646.751,507.624 646.251,508.624 645.5,509.5C 643.216,508.584 642.049,509.584 642,512.5C 641.536,511.906 641.369,511.239 641.5,510.5C 641.991,500.826 638.658,492.826 631.5,486.5C 631.084,484.248 629.751,482.748 627.5,482C 629.866,481.56 632.199,481.06 634.5,480.5 Z"/></g>
<g><path style="opacity:1" fill="#d9bd93" d="M 604.5,468.5 C 607.625,469.479 610.958,469.813 614.5,469.5C 622.035,471.6 628.701,475.267 634.5,480.5C 632.199,481.06 629.866,481.56 627.5,482C 629.751,482.748 631.084,484.248 631.5,486.5C 629.036,484.43 626.369,482.596 623.5,481C 593.466,469.191 572.132,478.025 559.5,507.5C 558.732,506.737 558.232,505.737 558,504.5C 556.676,505.88 555.343,506.214 554,505.5C 553.221,508.097 552.721,508.097 552.5,505.5C 560.941,480.733 578.274,468.4 604.5,468.5 Z"/></g>
<g><path style="opacity:1" fill="#d2b588" d="M 404.5,476.5 C 404.5,483.167 404.5,489.833 404.5,496.5C 420.018,497.531 435.351,499.864 450.5,503.5C 451.416,503.457 452.083,503.124 452.5,502.5C 453.625,500.623 453.291,498.79 451.5,497C 452.5,496.333 453.5,496.333 454.5,497C 453.304,497.654 453.304,498.154 454.5,498.5C 455.251,497.624 455.751,496.624 456,495.5C 456.864,498.109 458.03,499.775 459.5,500.5C 460.403,505.393 463.403,507.726 468.5,507.5C 466.708,508.309 464.708,508.809 462.5,509C 463.654,509.914 463.487,510.747 462,511.5C 461.517,510.552 461.351,509.552 461.5,508.5C 457.626,509.761 453.626,510.428 449.5,510.5C 437.258,507.904 424.925,505.737 412.5,504C 402.5,503.333 392.5,503.333 382.5,504C 379.139,504.054 376.139,505.054 373.5,507C 368.806,508.31 365.306,506.81 363,502.5C 362.675,500.447 363.009,498.447 364,496.5C 367.301,489.703 372.134,484.37 378.5,480.5C 381.079,480.394 383.412,481.061 385.5,482.5C 381.896,485.602 378.396,488.935 375,492.5C 373.066,495.034 371.732,497.701 371,500.5C 379.035,496.726 387.535,495.06 396.5,495.5C 397.321,492.359 397.821,489.025 398,485.5C 398.333,486.833 398.667,488.167 399,489.5C 399.333,488.833 399.667,488.167 400,487.5C 400.333,489.167 400.667,490.833 401,492.5C 401.333,488.167 401.667,483.833 402,479.5C 402.333,484.833 402.667,490.167 403,495.5C 403.172,488.987 403.672,482.653 404.5,476.5 Z"/></g>
<g><path style="opacity:1" fill="#caaa7a" d="M 614.5,511.5 C 612.716,510.426 611.549,508.76 611,506.5C 609.916,508.782 608.416,509.116 606.5,507.5C 606.5,499.5 606.5,491.5 606.5,483.5C 609.167,483.5 611.833,483.5 614.5,483.5C 614.5,492.833 614.5,502.167 614.5,511.5 Z"/></g>
<g><path style="opacity:1" fill="#b69463" d="M 404.5,516.5 C 403.677,519.977 403.177,523.644 403,527.5C 402.667,524.167 402.333,520.833 402,517.5C 400.899,519.394 399.566,520.061 398,519.5C 397.79,521.058 397.29,522.391 396.5,523.5C 396.5,518.833 396.5,514.167 396.5,509.5C 399.167,509.5 401.833,509.5 404.5,509.5C 404.5,511.833 404.5,514.167 404.5,516.5 Z"/></g>
<g><path style="opacity:1" fill="#b08c5d" d="M 648.5,511.5 C 647.791,517.925 644.791,522.925 639.5,526.5C 638.521,525.235 637.521,523.901 636.5,522.5C 635.313,523.653 634.313,523.653 633.5,522.5C 637.68,519.464 640.346,515.464 641.5,510.5C 641.369,511.239 641.536,511.906 642,512.5C 642.049,509.584 643.216,508.584 645.5,509.5C 646.251,508.624 646.751,507.624 647,506.5C 647.198,508.382 647.698,510.048 648.5,511.5 Z"/></g>
<g><path style="opacity:1" fill="#b69567" d="M 509.5,478.5 C 509.5,491.167 509.5,503.833 509.5,516.5C 510.679,518.507 510.179,518.84 508,517.5C 507.517,518.448 507.351,519.448 507.5,520.5C 505.29,519.417 503.123,519.417 501,520.5C 499.449,519.946 497.949,519.28 496.5,518.5C 494.547,519.156 492.547,519.489 490.5,519.5C 481.771,518.151 473.105,516.484 464.5,514.5C 464.5,515.5 464.5,516.5 464.5,517.5C 462.587,520.323 460.92,523.323 459.5,526.5C 458.947,522.237 457.947,518.07 456.5,514C 454.452,512.168 452.119,511.001 449.5,510.5C 453.626,510.428 457.626,509.761 461.5,508.5C 461.351,509.552 461.517,510.552 462,511.5C 463.487,510.747 463.654,509.914 462.5,509C 464.708,508.809 466.708,508.309 468.5,507.5C 479.405,510.31 490.405,512.643 501.5,514.5C 502.323,511.023 502.823,507.356 503,503.5C 503.333,504.5 503.667,505.5 504,506.5C 504.615,504.884 505.615,503.551 507,502.5C 507.333,504.833 507.667,507.167 508,509.5C 508.17,498.992 508.67,488.659 509.5,478.5 Z"/></g>
<g><path style="opacity:1" fill="#a68154" d="M 559.5,507.5 C 557.278,513.275 555.944,519.275 555.5,525.5C 557.861,525.674 560.194,526.007 562.5,526.5C 557.993,528.255 553.326,529.089 548.5,529C 549.38,530.356 549.714,531.856 549.5,533.5C 550.398,534.158 551.398,534.824 552.5,535.5C 552.192,536.308 551.692,536.975 551,537.5C 550.333,536.167 549.667,536.167 549,537.5C 547.915,536.264 547.082,534.931 546.5,533.5C 546.5,532.5 546.5,531.5 546.5,530.5C 527.37,528.607 508.703,524.94 490.5,519.5C 492.547,519.489 494.547,519.156 496.5,518.5C 497.949,519.28 499.449,519.946 501,520.5C 503.123,519.417 505.29,519.417 507.5,520.5C 507.351,519.448 507.517,518.448 508,517.5C 510.179,518.84 510.679,518.507 509.5,516.5C 519.415,518.978 529.415,521.145 539.5,523C 542.227,523.818 544.894,523.652 547.5,522.5C 548.801,516.61 550.468,510.943 552.5,505.5C 552.721,508.097 553.221,508.097 554,505.5C 555.343,506.214 556.676,505.88 558,504.5C 558.232,505.737 558.732,506.737 559.5,507.5 Z"/></g>
<g><path style="opacity:1" fill="#9e784b" d="M 614.5,511.5 C 614.5,517.167 614.5,522.833 614.5,528.5C 621.357,528.103 627.69,526.103 633.5,522.5C 634.313,523.653 635.313,523.653 636.5,522.5C 637.521,523.901 638.521,525.235 639.5,526.5C 637.747,528.223 635.747,529.723 633.5,531C 627.293,533.074 620.96,534.574 614.5,535.5C 614.5,546.167 614.5,556.833 614.5,567.5C 613.732,566.737 613.232,565.737 613,564.5C 612.51,565.793 612.343,567.127 612.5,568.5C 611.07,568.579 609.736,568.246 608.5,567.5C 607.824,568.602 607.158,569.602 606.5,570.5C 606.5,559.167 606.5,547.833 606.5,536.5C 590.068,536.856 573.735,535.856 557.5,533.5C 554.939,532.233 552.272,532.233 549.5,533.5C 549.714,531.856 549.38,530.356 548.5,529C 553.326,529.089 557.993,528.255 562.5,526.5C 577.09,528.441 591.757,529.441 606.5,529.5C 606.5,522.167 606.5,514.833 606.5,507.5C 608.416,509.116 609.916,508.782 611,506.5C 611.549,508.76 612.716,510.426 614.5,511.5 Z"/></g>
<g><path style="opacity:1" fill="#916a41" d="M 509.5,614.5 C 509.167,614.5 508.833,614.5 508.5,614.5C 508.5,604.833 508.5,595.167 508.5,585.5C 508.666,578.159 508.5,570.826 508,563.5C 507.667,565.5 507.333,567.5 507,569.5C 506.667,568.833 506.333,568.167 506,567.5C 504.415,568.376 503.415,569.709 503,571.5C 502.824,567.312 502.324,563.312 501.5,559.5C 501.334,549.828 501.5,540.161 502,530.5C 504.381,531.435 506.881,531.768 509.5,531.5C 509.5,559.167 509.5,586.833 509.5,614.5 Z"/></g>
<g><path style="opacity:1" fill="#2c0d0c" d="M 557.5,533.5 C 573.735,535.856 590.068,536.856 606.5,536.5C 606.5,547.833 606.5,559.167 606.5,570.5C 602.077,575.26 597.077,579.26 591.5,582.5C 586.473,584.398 581.473,586.065 576.5,587.5C 572.534,588.162 568.534,588.495 564.5,588.5C 564.5,586.833 564.5,585.167 564.5,583.5C 565.486,579.03 565.819,574.363 565.5,569.5C 566.477,566.713 566.81,563.713 566.5,560.5C 567.468,558.393 567.802,556.059 567.5,553.5C 563.629,553.185 559.962,553.518 556.5,554.5C 554.5,554.5 552.5,554.5 550.5,554.5C 551.745,547.539 552.745,540.539 553.5,533.5C 554.833,533.5 556.167,533.5 557.5,533.5 Z"/></g>
<g><path style="opacity:1" fill="#946c41" d="M 557.5,533.5 C 556.167,533.5 554.833,533.5 553.5,533.5C 552.745,540.539 551.745,547.539 550.5,554.5C 552.5,554.5 554.5,554.5 556.5,554.5C 559.833,554.5 563.167,554.5 566.5,554.5C 566.5,556.5 566.5,558.5 566.5,560.5C 566.81,563.713 566.477,566.713 565.5,569.5C 565.543,565.107 565.043,564.774 564,568.5C 562.989,567.663 561.822,567.33 560.5,567.5C 560.66,565.801 560.494,564.134 560,562.5C 559.79,564.058 559.29,565.391 558.5,566.5C 558.5,565.167 558.5,563.833 558.5,562.5C 553.167,562.5 547.833,562.5 542.5,562.5C 542.663,552.543 543.996,542.876 546.5,533.5C 547.082,534.931 547.915,536.264 549,537.5C 549.667,536.167 550.333,536.167 551,537.5C 551.692,536.975 552.192,536.308 552.5,535.5C 551.398,534.824 550.398,534.158 549.5,533.5C 552.272,532.233 554.939,532.233 557.5,533.5 Z"/></g>
<g><path style="opacity:1" fill="#956f42" d="M 464.5,517.5 C 467.903,532.244 470.57,547.244 472.5,562.5C 467.167,562.5 461.833,562.5 456.5,562.5C 456.5,564.167 456.5,565.833 456.5,567.5C 455.698,566.048 455.198,564.382 455,562.5C 454.503,564.81 454.337,567.143 454.5,569.5C 452.856,569.714 451.356,569.38 450,568.5C 449.505,570.473 449.338,572.473 449.5,574.5C 448.187,568.041 447.521,561.374 447.5,554.5C 452.833,554.5 458.167,554.5 463.5,554.5C 462.383,545.132 461.05,535.798 459.5,526.5C 460.92,523.323 462.587,520.323 464.5,517.5 Z"/></g>
<g><path style="opacity:1" fill="#543121" d="M 556.5,554.5 C 559.962,553.518 563.629,553.185 567.5,553.5C 567.802,556.059 567.468,558.393 566.5,560.5C 566.5,558.5 566.5,556.5 566.5,554.5C 563.167,554.5 559.833,554.5 556.5,554.5 Z"/></g>
<g><path style="opacity:1" fill="#936c41" d="M 404.5,516.5 C 404.5,535.5 404.5,554.5 404.5,573.5C 403.674,569.018 403.174,564.351 403,559.5C 402.667,564.833 402.333,570.167 402,575.5C 401.311,576.357 400.478,577.023 399.5,577.5C 398.304,575.855 397.304,574.189 396.5,572.5C 396.5,556.167 396.5,539.833 396.5,523.5C 397.29,522.391 397.79,521.058 398,519.5C 399.566,520.061 400.899,519.394 402,517.5C 402.333,520.833 402.667,524.167 403,527.5C 403.177,523.644 403.677,519.977 404.5,516.5 Z"/></g>
<g><path style="opacity:1" fill="#ae8f62" d="M 565.5,569.5 C 565.819,574.363 565.486,579.03 564.5,583.5C 564.657,582.127 564.49,580.793 564,579.5C 563.667,581.5 563.333,583.5 563,585.5C 561.251,584.701 559.918,585.368 559,587.5C 558.809,585.292 558.309,583.292 557.5,581.5C 557.337,576.453 557.671,571.453 558.5,566.5C 559.29,565.391 559.79,564.058 560,562.5C 560.494,564.134 560.66,565.801 560.5,567.5C 561.822,567.33 562.989,567.663 564,568.5C 565.043,564.774 565.543,565.107 565.5,569.5 Z"/></g>
<g><path style="opacity:1" fill="#b19162" d="M 404.5,573.5 C 407.526,576.195 410.526,578.862 413.5,581.5C 411.295,581.852 409.462,582.852 408,584.5C 407.517,583.552 407.351,582.552 407.5,581.5C 403.821,581.06 400.488,581.727 397.5,583.5C 397.167,583.5 396.833,583.5 396.5,583.5C 396.5,579.833 396.5,576.167 396.5,572.5C 397.304,574.189 398.304,575.855 399.5,577.5C 400.478,577.023 401.311,576.357 402,575.5C 402.333,570.167 402.667,564.833 403,559.5C 403.174,564.351 403.674,569.018 404.5,573.5 Z"/></g>
<g><path style="opacity:1" fill="#ad8d5f" d="M 456.5,567.5 C 456.998,572.152 457.331,576.819 457.5,581.5C 453.228,577.152 450.895,578.152 450.5,584.5C 449.521,581.375 449.187,578.042 449.5,574.5C 449.338,572.473 449.505,570.473 450,568.5C 451.356,569.38 452.856,569.714 454.5,569.5C 454.337,567.143 454.503,564.81 455,562.5C 455.198,564.382 455.698,566.048 456.5,567.5 Z"/></g>
<g><path style="opacity:1" fill="#b79869" d="M 501.5,559.5 C 502.324,563.312 502.824,567.312 503,571.5C 503.415,569.709 504.415,568.376 506,567.5C 506.333,568.167 506.667,568.833 507,569.5C 507.333,567.5 507.667,565.5 508,563.5C 508.5,570.826 508.666,578.159 508.5,585.5C 507.732,586.263 507.232,587.263 507,588.5C 505.701,588.034 504.201,588.034 502.5,588.5C 502.784,586.585 502.451,584.919 501.5,583.5C 501.5,575.5 501.5,567.5 501.5,559.5 Z"/></g>
<g><path style="opacity:1" fill="#b39567" d="M 614.5,567.5 C 614.5,570.167 614.5,572.833 614.5,575.5C 613.776,577.218 613.109,579.052 612.5,581C 609.964,581.186 607.631,581.686 605.5,582.5C 604.5,583.167 603.5,583.833 602.5,584.5C 598.939,583.77 595.273,583.103 591.5,582.5C 597.077,579.26 602.077,575.26 606.5,570.5C 607.158,569.602 607.824,568.602 608.5,567.5C 609.736,568.246 611.07,568.579 612.5,568.5C 612.343,567.127 612.51,565.793 613,564.5C 613.232,565.737 613.732,566.737 614.5,567.5 Z"/></g>
<g><path style="opacity:1" fill="#c4aa81" d="M 591.5,582.5 C 595.273,583.103 598.939,583.77 602.5,584.5C 598.294,587.102 593.961,589.436 589.5,591.5C 589.265,590.903 588.765,590.57 588,590.5C 586,591.167 584,591.833 582,592.5C 580.7,590.541 578.867,589.374 576.5,589C 579.097,588.221 579.097,587.721 576.5,587.5C 581.473,586.065 586.473,584.398 591.5,582.5 Z"/></g>
<g><path style="opacity:1" fill="#cbb18b" d="M 614.5,575.5 C 614.5,586.5 614.5,597.5 614.5,608.5C 612.429,608.498 610.262,608.831 608,609.5C 607.722,608.584 607.222,607.918 606.5,607.5C 606.826,598.983 606.493,590.65 605.5,582.5C 607.631,581.686 609.964,581.186 612.5,581C 613.109,579.052 613.776,577.218 614.5,575.5 Z"/></g>
<g><path style="opacity:1" fill="#c1a67b" d="M 413.5,581.5 C 417.74,584.118 422.074,586.452 426.5,588.5C 426.844,589.683 426.178,590.516 424.5,591C 421.854,591.497 419.187,591.664 416.5,591.5C 412.583,589.588 408.917,587.255 405.5,584.5C 405.158,583.662 404.492,583.328 403.5,583.5C 402.71,584.609 402.21,585.942 402,587.5C 400.667,584.833 399.333,584.833 398,587.5C 397.51,586.207 397.343,584.873 397.5,583.5C 400.488,581.727 403.821,581.06 407.5,581.5C 407.351,582.552 407.517,583.552 408,584.5C 409.462,582.852 411.295,581.852 413.5,581.5 Z"/></g>
<g><path style="opacity:1" fill="#d0b996" d="M 564.5,583.5 C 564.5,585.167 564.5,586.833 564.5,588.5C 568.534,588.495 572.534,588.162 576.5,587.5C 579.097,587.721 579.097,588.221 576.5,589C 578.867,589.374 580.7,590.541 582,592.5C 584,591.833 586,591.167 588,590.5C 588.765,590.57 589.265,590.903 589.5,591.5C 583.337,593.599 577.004,594.933 570.5,595.5C 565.833,595.5 561.167,595.5 556.5,595.5C 556.5,594.5 556.5,593.5 556.5,592.5C 556.724,588.821 557.058,585.154 557.5,581.5C 558.309,583.292 558.809,585.292 559,587.5C 559.918,585.368 561.251,584.701 563,585.5C 563.333,583.5 563.667,581.5 564,579.5C 564.49,580.793 564.657,582.127 564.5,583.5 Z"/></g>
<g><path style="opacity:1" fill="#ceb691" d="M 457.5,581.5 C 457.998,586.152 458.331,590.819 458.5,595.5C 458.5,596.5 458.5,597.5 458.5,598.5C 456.901,598.232 455.568,598.566 454.5,599.5C 440.847,600.916 428.18,598.249 416.5,591.5C 419.187,591.664 421.854,591.497 424.5,591C 426.178,590.516 426.844,589.683 426.5,588.5C 434.267,591.086 442.267,592.086 450.5,591.5C 450.5,589.167 450.5,586.833 450.5,584.5C 450.895,578.152 453.228,577.152 457.5,581.5 Z"/></g>
<g><path style="opacity:1" fill="#d2b992" d="M 396.5,583.5 C 396.833,583.5 397.167,583.5 397.5,583.5C 397.343,584.873 397.51,586.207 398,587.5C 399.333,584.833 400.667,584.833 402,587.5C 402.21,585.942 402.71,584.609 403.5,583.5C 403.5,593.833 403.5,604.167 403.5,614.5C 402.539,612.735 402.205,610.735 402.5,608.5C 400.799,608.966 399.299,608.966 398,608.5C 397.79,610.058 397.29,611.391 396.5,612.5C 396.5,602.833 396.5,593.167 396.5,583.5 Z"/></g>
<g><path style="opacity:1" fill="#826651" d="M 403.5,583.5 C 404.492,583.328 405.158,583.662 405.5,584.5C 404.506,594.319 404.173,604.319 404.5,614.5C 404.167,614.5 403.833,614.5 403.5,614.5C 403.5,604.167 403.5,593.833 403.5,583.5 Z"/></g>
<g><path style="opacity:1" fill="#8b725f" d="M 556.5,592.5 C 556.5,593.5 556.5,594.5 556.5,595.5C 561.167,595.5 565.833,595.5 570.5,595.5C 565.695,596.487 560.695,596.821 555.5,596.5C 555.232,594.901 555.566,593.568 556.5,592.5 Z"/></g>
<g><path style="opacity:1" fill="#d3b992" d="M 501.5,583.5 C 502.451,584.919 502.784,586.585 502.5,588.5C 504.201,588.034 505.701,588.034 507,588.5C 507.232,587.263 507.732,586.263 508.5,585.5C 508.5,595.167 508.5,604.833 508.5,614.5C 507.596,613.791 507.263,612.791 507.5,611.5C 505.856,611.714 504.356,611.38 503,610.5C 502.768,611.737 502.268,612.737 501.5,613.5C 501.5,603.5 501.5,593.5 501.5,583.5 Z"/></g>
<g><path style="opacity:1" fill="#816856" d="M 458.5,595.5 C 459.434,596.568 459.768,597.901 459.5,599.5C 457.833,599.5 456.167,599.5 454.5,599.5C 455.568,598.566 456.901,598.232 458.5,598.5C 458.5,597.5 458.5,596.5 458.5,595.5 Z"/></g>
<g><path style="opacity:1" fill="#9f7a4d" d="M 606.5,607.5 C 607.222,607.918 607.722,608.584 608,609.5C 610.262,608.831 612.429,608.498 614.5,608.5C 614.338,610.527 614.505,612.527 615,614.5C 618.253,616.543 621.42,618.71 624.5,621C 614.5,621.667 604.5,621.667 594.5,621C 598.036,618.634 601.703,616.467 605.5,614.5C 606.474,612.257 606.808,609.924 606.5,607.5 Z"/></g>
<g><path style="opacity:1" fill="#a07c4f" d="M 403.5,614.5 C 403.833,614.5 404.167,614.5 404.5,614.5C 407.939,616.394 411.272,618.56 414.5,621C 404.833,621.667 395.167,621.667 385.5,621C 388.952,618.607 392.619,616.774 396.5,615.5C 396.5,614.5 396.5,613.5 396.5,612.5C 397.29,611.391 397.79,610.058 398,608.5C 399.299,608.966 400.799,608.966 402.5,608.5C 402.205,610.735 402.539,612.735 403.5,614.5 Z"/></g>
<g><path style="opacity:1" fill="#9f7b4d" d="M 508.5,614.5 C 508.833,614.5 509.167,614.5 509.5,614.5C 512.658,616.804 515.991,618.97 519.5,621C 509.833,621.667 500.167,621.667 490.5,621C 493.673,618.913 497.006,617.079 500.5,615.5C 501.298,615.043 501.631,614.376 501.5,613.5C 502.268,612.737 502.768,611.737 503,610.5C 504.356,611.38 505.856,611.714 507.5,611.5C 507.263,612.791 507.596,613.791 508.5,614.5 Z"/></g>
<g><path style="opacity:1" fill="#c9b8a3" d="M 238.5,626.5 C 250.66,625.34 262.993,625.173 275.5,626C 277.871,628.184 277.704,630.35 275,632.5C 269,639.833 263,647.167 257,654.5C 254.771,657.156 252.938,656.823 251.5,653.5C 253.833,651.833 255.833,649.833 257.5,647.5C 255.087,641.335 252.754,635.169 250.5,629C 247.854,628.503 245.187,628.336 242.5,628.5C 242.719,629.675 242.386,630.675 241.5,631.5C 240.675,629.64 239.675,627.974 238.5,626.5 Z"/></g>
<g><path style="opacity:1" fill="#280f0d" d="M 254.5,629.5 C 260.509,629.334 266.509,629.501 272.5,630C 268.311,634.688 264.311,639.521 260.5,644.5C 257.668,639.836 255.668,634.836 254.5,629.5 Z"/></g>
<g><path style="opacity:1" fill="#cabaa5" d="M 749.5,622.5 C 751.196,622.685 752.529,623.519 753.5,625C 748.655,629.152 746.822,634.318 748,640.5C 749.466,642.325 751.299,642.825 753.5,642C 757.289,637.721 761.289,633.721 765.5,630C 775.167,628.669 779,632.836 777,642.5C 775.28,647.446 772.446,651.613 768.5,655C 763.57,653.919 763.403,652.086 768,649.5C 771.381,645.753 772.714,641.419 772,636.5C 769.716,634.016 767.216,633.849 764.5,636C 761.5,640.333 757.833,644 753.5,647C 748.232,648.45 744.732,646.617 743,641.5C 741.949,634.023 744.116,627.69 749.5,622.5 Z"/></g>
<g><path style="opacity:1" fill="#cabaa4" d="M 308.5,678.5 C 314.723,682.56 319.89,687.894 324,694.5C 327.412,708.592 321.912,716.592 307.5,718.5C 303.662,718.746 300.328,717.58 297.5,715C 293.318,710.985 289.318,706.818 285.5,702.5C 293.188,694.479 300.855,686.479 308.5,678.5 Z"/></g>
<g><path style="opacity:1" fill="#2b0f0e" d="M 308.5,685.5 C 319.745,690.321 322.912,698.321 318,709.5C 312.774,714.88 306.941,715.714 300.5,712C 297.317,708.985 294.317,705.818 291.5,702.5C 297.521,697.146 303.188,691.479 308.5,685.5 Z"/></g>
<g><path style="opacity:1" fill="#cab9a4" d="M 711.5,681.5 C 723.153,679.905 730.986,684.572 735,695.5C 735,711.16 727.167,717.994 711.5,716C 700.403,710.045 697.237,701.212 702,689.5C 704.772,686.217 707.939,683.55 711.5,681.5 Z"/></g>
<g><path style="opacity:1" fill="#2b0f0d" d="M 712.5,685.5 C 728.309,685.468 733.475,692.801 728,707.5C 719.663,714.685 711.996,714.018 705,705.5C 702.169,696.829 704.669,690.163 712.5,685.5 Z"/></g>
<g><path style="opacity:1" fill="#cbbba6" d="M 651.5,730.5 C 664.834,729.01 672.5,734.843 674.5,748C 674.564,753.872 672.231,758.538 667.5,762C 662.747,764.458 658.247,767.292 654,770.5C 647.454,761.239 641.287,751.739 635.5,742C 640.278,737.44 645.612,733.606 651.5,730.5 Z"/></g>
<g><path style="opacity:1" fill="#2b0f0d" d="M 652.5,734.5 C 667.639,735.119 672.472,742.453 667,756.5C 663.581,759.751 659.747,762.418 655.5,764.5C 650.5,757.167 645.5,749.833 640.5,742.5C 644.565,739.81 648.565,737.143 652.5,734.5 Z"/></g>
<g><path style="opacity:1" fill="#c8b8a3" d="M 361.5,723.5 C 363.844,723.506 365.178,724.673 365.5,727C 363.708,737.212 362.208,747.378 361,757.5C 369.412,751.377 377.912,745.377 386.5,739.5C 388.002,740.083 389.335,740.916 390.5,742C 380.229,749.049 370.062,756.216 360,763.5C 357.203,763.203 355.703,761.703 355.5,759C 357.542,747.157 359.542,735.323 361.5,723.5 Z"/></g>
<g><path style="opacity:1" fill="#c9b8a3" d="M 582.5,758.5 C 584.017,758.511 585.184,759.177 586,760.5C 593.31,769.978 600.81,779.311 608.5,788.5C 607.652,790.283 606.319,790.783 604.5,790C 602.041,787.554 599.708,785.054 597.5,782.5C 592.287,784.96 586.954,787.127 581.5,789C 580.134,791.997 579.467,795.164 579.5,798.5C 578.167,798.5 576.833,798.5 575.5,798.5C 576.915,785.511 578.249,772.511 579.5,759.5C 580.791,759.737 581.791,759.404 582.5,758.5 Z"/></g>
<g><path style="opacity:1" fill="#2a100e" d="M 583.5,765.5 C 587.635,769.806 591.635,774.306 595.5,779C 591.405,781.312 587.072,783.146 582.5,784.5C 582.167,783.333 581.833,782.167 581.5,781C 582.308,775.843 582.975,770.676 583.5,765.5 Z"/></g>
<g><path style="opacity:1" fill="#cbbaa5" d="M 509.5,769.5 C 516.948,768.317 523.282,770.317 528.5,775.5C 528.167,776.5 527.5,777.167 526.5,777.5C 520.098,772.872 513.431,772.372 506.5,776C 501.247,781.265 500.081,787.432 503,794.5C 508.812,801.187 515.479,802.187 523,797.5C 523.499,793.848 523.665,790.182 523.5,786.5C 524.833,786.5 526.167,786.5 527.5,786.5C 527.666,790.846 527.499,795.179 527,799.5C 517.411,806.694 508.411,806.027 500,797.5C 494.073,784.847 497.24,775.513 509.5,769.5 Z"/></g>
<g><path style="opacity:1" fill="#c8b7a2" d="M 431.5,759.5 C 447.687,758.192 455.52,765.525 455,781.5C 448.67,794.162 439.17,797.328 426.5,791C 417.808,783.779 416.308,775.279 422,765.5C 424.843,762.837 428.009,760.837 431.5,759.5 Z"/></g>
<g><path style="opacity:1" fill="#2c0e0d" d="M 430.5,763.5 C 437.651,762.606 443.818,764.606 449,769.5C 453.061,781.377 448.894,788.377 436.5,790.5C 423.239,787.201 419.739,779.535 426,767.5C 427.992,766.672 429.492,765.339 430.5,763.5 Z"/></g>
</svg>
